<svg xmlns="http://www.w3.org/2000/svg" width="64" height="64" viewBox="0 0 19.186 19.186">
  <g fill="#f0dea2">
    <path d="M9.593,1.728c2.561,0,2.865.01,3.876.056a5.307,5.307,0,0,1,1.781.33,2.972,2.972,0,0,1,1.1.718,2.972,2.972,0,0,1,.718,1.1,5.307,5.307,0,0,1,.33,1.781c.046,1.012.056,1.315.056,3.876s-.01,2.865-.056,3.876a5.307,5.307,0,0,1-.33,1.781,3.177,3.177,0,0,1-1.821,1.821,5.307,5.307,0,0,1-1.781.33c-1.011.046-1.315.056-3.876.056s-2.865-.01-3.876-.056a5.307,5.307,0,0,1-1.781-.33,2.972,2.972,0,0,1-1.1-.718,2.972,2.972,0,0,1-.718-1.1,5.307,5.307,0,0,1-.33-1.781c-.046-1.012-.056-1.315-.056-3.876s.01-2.865.056-3.876a5.307,5.307,0,0,1,.33-1.781,2.972,2.972,0,0,1,.718-1.1,2.972,2.972,0,0,1,1.1-.718,5.307,5.307,0,0,1,1.781-.33c1.012-.046,1.315-.056,3.876-.056M9.593,0C6.988,0,6.661.011,5.638.058A7.04,7.04,0,0,0,3.309.5,4.7,4.7,0,0,0,1.61,1.61,4.7,4.7,0,0,0,.5,3.309,7.04,7.04,0,0,0,.058,5.638C.011,6.661,0,6.988,0,9.593s.011,2.932.058,3.955A7.04,7.04,0,0,0,.5,15.877a4.7,4.7,0,0,0,1.106,1.7,4.7,4.7,0,0,0,1.7,1.106,7.041,7.041,0,0,0,2.329.446c1.023.047,1.35.058,3.955.058s2.932-.011,3.955-.058a7.041,7.041,0,0,0,2.329-.446,4.905,4.905,0,0,0,2.806-2.806,7.041,7.041,0,0,0,.446-2.329c.047-1.023.058-1.35.058-3.955s-.011-2.932-.058-3.955a7.041,7.041,0,0,0-.446-2.329,4.7,4.7,0,0,0-1.106-1.7A4.7,4.7,0,0,0,15.877.5,7.04,7.04,0,0,0,13.548.058C12.525.011,12.2,0,9.593,0Z"/>
    <path d="M127.482,122.556a4.926,4.926,0,1,0,4.926,4.926A4.926,4.926,0,0,0,127.482,122.556Zm0,8.124a3.2,3.2,0,1,1,3.2-3.2A3.2,3.2,0,0,1,127.482,130.68Z" transform="translate(-117.889 -117.889)"/>
    <circle cx="14.714" cy="4.472" r="1.151"/>
  </g>
</svg>
