<svg xmlns="http://www.w3.org/2000/svg" width="16.987" height="21.62" viewBox="0 0 16.987 21.62">
  <path id="bb6196a7966cbba769f079f8f7532554" d="M11.949,2A4.647,4.647,0,0,0,7.316,6.633V9.722A2.275,2.275,0,0,0,5,12.038v4.633a6.96,6.96,0,0,0,13.744,1.544H18.9a2.8,2.8,0,0,0,2.162-.927,3.049,3.049,0,0,0,.927-2.162,2.922,2.922,0,0,0-.927-2.162,3.247,3.247,0,0,0-2.162-.927,2.275,2.275,0,0,0-2.316-2.316V6.633A4.647,4.647,0,0,0,11.949,2Zm8.03,12.046a1.493,1.493,0,0,1,0,2.162,1.7,1.7,0,0,1-1.622.386,1.543,1.543,0,0,1-.541-2.548,1.681,1.681,0,0,1,.618-.386.979.979,0,0,1,.463-.077A1.524,1.524,0,0,1,19.98,14.046Zm-2.625-2.008V12.5a4.283,4.283,0,0,0-.618.463,2.507,2.507,0,0,0-.772,1.39h-7.1a.73.73,0,0,0-.772.772v1.544a.772.772,0,0,0,1.544,0V15.9h1.544v.772a.772.772,0,0,0,1.544,0V15.9h3.166A3.575,3.575,0,0,0,17.2,17.752a5.314,5.314,0,0,1-5.251,4.324,5.561,5.561,0,0,1-3.861-1.544,5.427,5.427,0,0,1-1.544-3.861V12.038a.73.73,0,0,1,.772-.772h9.266A.73.73,0,0,1,17.354,12.038ZM8.861,9.722V6.633a3.089,3.089,0,1,1,6.177,0V9.722Z" transform="translate(-5 -2)" fill="#2c2216"/>
</svg>
