<svg xmlns="http://www.w3.org/2000/svg" width="29.637" height="29.638" viewBox="0 0 29.637 29.638">
  <path id="Path_352" data-name="Path 352" d="M14.819,2.67c3.957,0,4.425.015,5.988.086a8.2,8.2,0,0,1,2.752.51,4.591,4.591,0,0,1,1.7,1.109,4.59,4.59,0,0,1,1.108,1.7,8.2,8.2,0,0,1,.51,2.752c.071,1.563.086,2.031.086,5.988s-.015,4.425-.086,5.988a8.2,8.2,0,0,1-.51,2.752,4.907,4.907,0,0,1-2.812,2.812,8.2,8.2,0,0,1-2.752.51c-1.562.071-2.031.086-5.988.086s-4.426-.015-5.988-.086a8.2,8.2,0,0,1-2.752-.51,4.591,4.591,0,0,1-1.7-1.109,4.592,4.592,0,0,1-1.109-1.7,8.2,8.2,0,0,1-.51-2.752c-.071-1.563-.086-2.031-.086-5.988s.015-4.425.086-5.988a8.2,8.2,0,0,1,.51-2.752,4.592,4.592,0,0,1,1.109-1.7,4.591,4.591,0,0,1,1.7-1.109,8.2,8.2,0,0,1,2.752-.51c1.563-.071,2.031-.086,5.988-.086m0-2.67c-4.025,0-4.529.017-6.11.089a10.876,10.876,0,0,0-3.6.689A7.265,7.265,0,0,0,2.487,2.487,7.264,7.264,0,0,0,.778,5.112a10.878,10.878,0,0,0-.689,3.6C.017,10.289,0,10.794,0,14.819s.017,4.529.089,6.11a10.879,10.879,0,0,0,.689,3.6A7.264,7.264,0,0,0,2.487,27.15a7.264,7.264,0,0,0,2.625,1.709,10.879,10.879,0,0,0,3.6.689c1.581.072,2.085.089,6.11.089s4.529-.017,6.11-.089a10.879,10.879,0,0,0,3.6-.689,7.578,7.578,0,0,0,4.334-4.334,10.879,10.879,0,0,0,.689-3.6c.072-1.581.089-2.085.089-6.11s-.017-4.529-.089-6.11a10.878,10.878,0,0,0-.689-3.6A7.265,7.265,0,0,0,27.15,2.487,7.265,7.265,0,0,0,24.525.778a10.876,10.876,0,0,0-3.6-.689C19.348.017,18.843,0,14.819,0m0,7.209a7.61,7.61,0,1,0,7.61,7.61,7.61,7.61,0,0,0-7.61-7.61m0,12.549a4.94,4.94,0,1,1,4.94-4.94,4.94,4.94,0,0,1-4.94,4.94m9.689-12.85A1.778,1.778,0,1,1,22.729,5.13a1.778,1.778,0,0,1,1.778,1.778" fill="#2c2216"/>
</svg>
