<svg xmlns="http://www.w3.org/2000/svg" width="64" height="64" viewBox="0 0 19.048 19.049">
  <path d="M10.124,19.049H1.789A1.791,1.791,0,0,1,0,17.259V1.789A1.791,1.791,0,0,1,1.789,0h15.47a1.791,1.791,0,0,1,1.789,1.789v15.47a1.791,1.791,0,0,1-1.789,1.789H12.975V11.612h2.378L15.71,8.86H12.975V7.1c0-.8.233-1.339,1.368-1.339h1.463V3.3a19.724,19.724,0,0,0-2.131-.108,3.558,3.558,0,0,0-2.566.936,3.684,3.684,0,0,0-.985,2.7V8.86H7.74v2.751h2.384v7.437Z" fill="#f0dea2" stroke="rgba(0,0,0,0)" stroke-width="1"/>
</svg>
