<svg xmlns="http://www.w3.org/2000/svg" width="64" height="64" viewBox="0 0 19.05 19.05">
  <path d="M16.782,0H2.268A2.269,2.269,0,0,0,0,2.268V16.782A2.269,2.269,0,0,0,2.268,19.05H16.782a2.269,2.269,0,0,0,2.268-2.268V2.268A2.269,2.269,0,0,0,16.782,0M5.9,15.875H3.175V7.257H5.9ZM3.175,4.749a1.209,1.209,0,0,1,1.361-1.12A1.227,1.227,0,0,1,5.9,4.749,1.207,1.207,0,0,1,4.536,5.9,1.228,1.228,0,0,1,3.175,4.749m12.7,11.126H13.153V11.339a1.631,1.631,0,0,0-1.587-1.832H11.53c-1.1,0-1.551.934-1.551,1.832v4.536H7.257V7.257H9.978V8.418a3.4,3.4,0,0,1,2.635-1.161c1.8,0,3.261,1.238,3.261,3.746Z" fill="#f0dea2"/>
</svg>
